<?xml version="1.0" encoding="utf-8"?>
<!-- Generator: Adobe Illustrator 28.0.0, SVG Export Plug-In . SVG Version: 6.00 Build 0)  -->
<svg version="1.1" id="Layer_1" xmlns="http://www.w3.org/2000/svg" xmlns:xlink="http://www.w3.org/1999/xlink" x="0px" y="0px"
	 viewBox="0 0 217.3 200" style="enable-background:new 0 0 217.3 200;" xml:space="preserve">
<style type="text/css">
	.st0{fill:#FFFFFF;}
	.st1{fill:#0070FF;}
</style>
<rect class="st0" width="217.2" height="200"/>
<g>
	<path class="st1" d="M0,100v100h108.6h108.6V100V0H108.6H0V100z M112.7,23.1c5.2,0.2,11.4,1.2,16.9,2.8c17,4.9,31.5,15.4,42,30.4
		c0.6,0.8,1,1.6,1,1.7c0,0.1-0.8,0.2-2.6,0.2h-2.6l-0.8-1.2c-2.3-3.2-6.9-8.3-9.9-11l-1.3-1.1l-3.1,0.8c-5.6,1.4-11.8,2.5-18,3.3
		c-1.4,0.2-2.5,0.4-2.5,0.4c0,0.1,0.3,1,0.6,2c0.7,2.4,1.8,6.3,1.8,6.6c0,0.2-0.6,0.2-2.3,0.2h-2.3l-0.3-1.1
		c-0.1-0.6-0.5-1.6-0.6-2.3c-0.6-2-1.5-4.8-1.6-4.9c-0.1-0.1-1.3-0.1-2.7,0c-1.4,0.1-5.3,0.3-8.7,0.4c-6.5,0.2-15.6,0-21.7-0.5
		c-1.6-0.1-2.9-0.2-3-0.1c-0.1,0.1-1.5,4.3-2.1,6.6l-0.5,1.9h-2.3c-2.1,0-2.3,0-2.3-0.3c0-0.4,1-4.3,1.8-6.8c0.3-1,0.5-1.8,0.4-1.9
		c-0.1-0.1-1-0.2-2.1-0.3c-5-0.6-12.3-1.9-17.9-3.3l-3.4-0.8l-1,0.8c-3,2.5-7.7,7.8-10.2,11.1l-1.1,1.5h-2.7c-1.5,0-2.7-0.1-2.7-0.1
		c0-0.2,2.9-4.3,4.6-6.4c7.1-8.9,15.7-15.8,25.9-20.9c7.8-3.9,15.4-6.1,24.4-7.3c2.3-0.3,8.3-0.6,9.7-0.5
		C109.6,23,111.2,23,112.7,23.1L112.7,23.1z M104,65.2c2.9,0.3,4.5,0.4,12.2,0.5l8.9,0.1v9.9v9.9h-7.9h-7.9l-0.1-2.2l-0.1-2.2
		l-1.1-0.4c-3.2-1.3-7.4-1.9-12.1-2c-4.7,0-6.8,0.4-8.8,1.7c-2.1,1.3-2.4,4.1-0.6,5.8c1.8,1.8,4,2.4,13.7,3.6
		c8.4,1.1,11.7,1.7,15.8,3.3c2,0.8,4.5,2.2,6,3.5c2.3,1.9,4.2,5,5,8.3c0.6,2.5,0.8,7.2,0.4,9.7c-0.8,4.3-2.4,7.4-5.4,10.2
		c-3.2,3.1-7.3,5.1-13,6.3c-6.3,1.4-15.2,1.6-24.1,0.6c-3.1-0.3-4.8-0.4-12.2-0.5l-8.6-0.1v-9.8v-9.8H72h8v2v2l0.7,0.4
		c2.3,1.2,7.1,2,12.2,2.2c8.7,0.2,12.6-1.3,12.7-5c0-1.4-0.4-2.2-1.6-3.1c-1.8-1.3-4.3-1.8-12.2-2.8c-9.5-1.2-13.3-2.1-17.4-4
		c-6.6-3.1-9.9-7.9-10.5-15.4c-0.4-4,0.3-7.7,1.8-10.9c3.5-7.3,11.6-11.4,24-12.5C92.2,64.5,100.8,64.8,104,65.2L104,65.2z
		 M173.7,65c8.2,1.2,14.7,4.3,19.8,9.4c6.2,6.2,9.1,14.1,9.1,24.2c0,4.9-0.5,8.5-1.8,12.3c-4.3,13-15.5,20.8-31.3,21.7
		c-8.3,0.5-16.7-1.2-22.7-4.4c-4.1-2.2-8.4-6.1-10.7-9.6c-2.8-4.3-4.6-9.2-5.3-15c-0.3-2.3-0.2-8.1,0.1-10.5
		c1.5-11.4,7.6-20.1,17.4-24.7c4.1-1.9,8.5-3.1,14-3.7C164.2,64.5,171.7,64.7,173.7,65L173.7,65z M59.4,74.1v8.2h-5.3h-5.3v16.6
		v16.6h5.3h5.3v8.2v8.2H38.2L17,131.6l-0.1-8.2v-8.1h5.3h5.3V98.8V82.2h-5.3H17V74v-8.1h21.3h21.3v8.2H59.4z M50.8,140.3
		c2.3,3.3,7.5,9,10.3,11.5l1,0.9l3-0.7c5.8-1.4,11.5-2.5,17.4-3.2c1.8-0.2,3.3-0.4,3.4-0.4s-0.2-0.8-0.5-1.9
		c-0.8-2.4-1.8-6.3-1.8-6.7c0-0.3,0.2-0.3,2.3-0.3h2.3l0.5,1.8c0.3,1,0.8,2.9,1.3,4.3l0.8,2.4l1-0.1c5.9-0.6,21.4-0.8,28.7-0.3
		c2.3,0.1,4.7,0.3,5.3,0.3h1.2l0.6-1.9c0.3-1.1,0.9-2.9,1.2-4.1l0.6-2.2l2.3-0.1c1.5,0,2.3,0,2.3,0.1c0,0.3-1.6,6.1-2.1,7.5
		l-0.5,1.3l0.6,0.1c0.3,0.1,1.6,0.2,2.9,0.4c5.4,0.7,12.1,2,17.2,3.2c2.6,0.7,2.9,0.7,3.3,0.5c0.9-0.6,4.9-4.5,6.8-6.7
		c1.1-1.3,2.7-3.2,3.6-4.4l1.6-2.1h2.6c1.5,0,2.6,0.1,2.6,0.1c0,0.2-2.4,3.7-3.8,5.6c-12.7,16.4-31.4,26.8-52.2,29.1
		c-3.4,0.4-13.3,0.3-16.6-0.1c-16.8-2.2-31-8.8-43.3-20.2c-4.2-3.9-9.5-10.3-11.8-14.3c-0.1-0.2,0.5-0.2,2.6-0.2h2.7L50.8,140.3z"/>
	<path class="st1" d="M106.1,27.7c-4.3,1.5-8.3,6.1-12,13.7c-0.8,1.7-1.6,3.3-1.6,3.4c-0.1,0.3,0.1,0.3,0.8,0.4
		c4.6,0.5,16.5,0.8,23,0.5c7.8-0.3,8.6-0.4,8.6-0.7c0-0.5-2.8-6-3.9-7.9c-2.4-3.9-4.8-6.6-7.2-8.2C111.2,27.2,108.6,26.8,106.1,27.7
		L106.1,27.7z"/>
	<path class="st1" d="M95.9,28.4C86,30.5,78,33.8,69.6,39.3c-2.1,1.3-2.7,1.9-2.2,1.9c0.1,0,1.3,0.3,2.6,0.6c4.5,1,13.7,2.5,17,2.8
		l0.7,0.1l0.8-1.8c2.2-5.2,5.7-11,8.6-13.9c0.6-0.7,0.6-0.7,0.2-0.7C96.9,28.2,96.3,28.3,95.9,28.4L95.9,28.4z"/>
	<path class="st1" d="M120.6,28.9c1.3,1.5,3.4,4.4,4.4,6.1c1.3,2.1,3.3,6,4.1,8.1l0.6,1.6l1.2-0.1c5.8-0.6,19.5-3,19.5-3.4
		c0-0.1-1.2-0.9-2.6-1.9c-7.8-5.2-16.5-8.9-25.2-10.7C119.8,28,119.8,28,120.6,28.9z"/>
	<path class="st1" d="M164.1,80.2c-6.1,0.9-9.7,5.3-10.8,13.2c-0.4,3.1-0.3,9.7,0.3,12.3c1.7,8.1,6.3,11.8,13.7,11.5
		c3.9-0.2,6-1,8.3-3.3c3.2-3.2,4.5-7.6,4.5-15.2c0-6.2-0.9-10.2-3.1-13.5c-1.5-2.3-4-4-6.7-4.7C168.9,80.1,165.7,80,164.1,80.2
		L164.1,80.2z"/>
	<path class="st1" d="M100.8,151.9c-5,0.3-8.4,0.5-8.4,0.5c-0.1,0.1,2.2,4.9,3.4,7c2.6,4.5,5.2,7.5,7.8,9.2c1.7,1.1,2.8,1.5,4.5,1.6
		s2.9-0.1,4.8-1.1c2.1-1.1,5.2-4.2,7.2-7.3c1.4-2.1,4.8-8.6,4.8-9.2c0-0.3-0.4-0.3-4-0.6C118,152,103.3,151.8,100.8,151.9
		L100.8,151.9z"/>
	<path class="st1" d="M85.6,153c-0.3,0-2.1,0.3-3.9,0.5c-4.4,0.6-7.9,1.2-11.8,2c-2.5,0.5-3.1,0.7-3,0.9c0.3,0.4,5.2,3.5,7.6,4.9
		c6.3,3.5,13.1,6.1,20,7.5c1.4,0.3,2.7,0.6,2.8,0.6s-0.2-0.5-0.8-1.2c-3-3.4-5.8-8-8.1-13.3l-0.9-2h-0.7C86.5,153,86,153,85.6,153
		L85.6,153z"/>
	<path class="st1" d="M129.4,154.1c-0.7,1.7-3,6.3-4.2,8.2c-1.3,2.1-2.9,4.3-4.2,5.9c-0.6,0.7-1,1.2-1,1.3c0.2,0.2,6.5-1.3,9.8-2.4
		c6-1.9,13.6-5.7,19.1-9.4l1.6-1.1l-1-0.2c-4.9-1.1-10.8-2.2-15.5-2.8c-1.6-0.2-3.2-0.4-3.6-0.5L129.4,154.1L129.4,154.1z"/>
</g>
</svg>
