<?xml version="1.0" encoding="utf-8"?>
<!-- Generator: Adobe Illustrator 16.0.3, SVG Export Plug-In . SVG Version: 6.00 Build 0)  -->
<!DOCTYPE svg PUBLIC "-//W3C//DTD SVG 1.1//EN" "http://www.w3.org/Graphics/SVG/1.1/DTD/svg11.dtd">
<svg version="1.1" id="sisLogo" xmlns="http://www.w3.org/2000/svg" xmlns:xlink="http://www.w3.org/1999/xlink" x="0px" y="0px"
	 width="611.24px" height="149.057px" viewBox="0 321.4 611.24 149.057" enable-background="new 0 321.4 611.24 149.057"
	 xml:space="preserve">
<path fill="#EE3A29" d="M66.655,406.149l-29.593-4.533c-9.066-1.501-14.464-5.388-14.464-13.589c0-4.305,2.167-8.182,6.044-11.404
	c5.008-3.906,11.917-5.426,18.588-5.426c7.346,0,14.254,2.376,18.778,6.481c3.85,3.417,6.176,8.23,6.462,13.371h18.341
	c-0.197-7.549-2.868-14.824-7.603-20.707c-7.488-9.712-21.087-14.673-35.979-14.673c-13.58,0-26.105,5.188-33.213,12.506
	c-5.62,5.509-8.803,13.037-8.838,20.907c0,7.109,2.147,13.798,6.462,18.75c4.752,5.189,11.651,8.857,20.061,10.14l27.825,4.163
	c11.661,1.729,16.155,7.982,16.155,15.091c0.036,4.361-1.942,8.495-5.36,11.204c-5.625,4.752-13.808,6.253-21.363,6.253
	c-8.638,0-15.965-1.511-21.145-5.389c-5.179-3.877-9.275-9.274-9.503-16.829H0c0.118,9.508,3.996,18.583,10.786,25.24
	c9.712,9.503,22.427,12.733,37.318,12.733c14.892,0,28.899-4.105,37.31-12.733c5.724-5.784,8.852-13.646,8.667-21.781
	C94.081,417.591,79.826,408.088,66.655,406.149z"/>
<polygon fill="#EE3A29" points="152.05,373.668 133.043,373.668 133.043,356.087 104.534,356.087 104.534,374.01 133.214,374.01 
	133.214,450.443 99.402,450.443 99.402,467.635 185.282,467.635 185.282,450.443 152.05,450.443 152.05,374.01 "/>
<path fill="#EE3A29" d="M253.343,406.149l-29.564-4.533c-9.057-1.501-14.455-5.388-14.455-13.589c0-4.305,2.167-8.182,6.044-11.404
	c4.97-3.887,11.87-5.397,18.55-5.397c7.336,0,14.255,2.375,18.778,6.481c3.85,3.417,6.176,8.231,6.462,13.371h18.332
	c-0.176-7.543-2.828-14.819-7.545-20.707c-7.536-9.712-21.135-14.673-36.026-14.673c-13.58,0-26.105,5.189-33.261,12.506
	c-5.626,5.504-8.81,13.036-8.838,20.907c0,7.108,2.138,13.799,6.462,18.75c4.751,5.188,11.651,8.856,20.061,10.14l27.873,4.134
	c11.661,1.729,16.155,7.982,16.155,15.091c0.032,4.374-1.96,8.518-5.397,11.223c-5.617,4.752-13.799,6.254-21.354,6.254
	c-8.648,0-15.965-1.512-21.154-5.389c-5.189-3.877-9.266-9.275-9.503-16.83h-18.274c0.112,9.51,3.991,18.586,10.786,25.24
	c9.712,9.503,22.427,12.734,37.319,12.734c14.891,0,28.899-4.105,37.309-12.734c5.71-5.791,8.827-13.65,8.638-21.781
	C280.741,417.591,266.496,408.088,253.343,406.149z"/>
<rect id="animate" x="132.568" y="321.4" fill="#EE3A29" width="19.481" height="17.818"/>
<path d="M519.459,429.574c4.951,0,9.009-2.851,10.13-7.707h-3.801c-0.355,1.124-1.036,2.116-1.958,2.852
	c-1.212,1.011-2.769,1.512-4.343,1.396c-1.685,0.028-3.313-0.606-4.533-1.768c-1.567-1.574-2.429-3.718-2.385-5.939h17.656v-1.396
	c0.122-3.468-1.101-6.849-3.411-9.437c-1.95-1.883-4.57-2.909-7.279-2.852c-2.814-0.055-5.528,1.04-7.518,3.032
	c-2.359,2.591-3.617,6-3.507,9.503c-0.129,3.429,1.137,6.765,3.507,9.246C513.999,428.465,516.672,429.568,519.459,429.574z
	 M519.459,408.136c1.711-0.035,3.357,0.655,4.533,1.9c1.275,1.388,1.989,3.199,2.005,5.084h-13.305
	C512.778,412.346,514.926,408.136,519.459,408.136L519.459,408.136z"/>
<path d="M491.672,399.222v6.11h-7.375v3.412h7.375v13.304c0,3.802,2.29,7.47,7.603,7.47c2.291,0.036,4.549-0.545,6.538-1.683v-3.497
	c-1.835,0.981-3.87,1.527-5.949,1.597c-2.756,0-4.2-1.729-4.2-4.248v-12.942h9.902v-3.412h-9.922v-7.374L491.672,399.222z"/>
<path d="M456.947,427.835v-3.497c-1.844,0.982-3.89,1.525-5.978,1.588c-2.746,0-4.2-1.73-4.2-4.248v-12.934h9.902v-3.412h-9.902
	v-7.374l-3.925,1.264v6.11h-7.384v3.412h7.384v13.304c0,3.802,2.28,7.47,7.603,7.47
	C452.726,429.549,454.971,428.968,456.947,427.835z"/>
<polygon points="437.066,425.555 428.476,425.555 428.476,405.342 416.844,405.342 416.844,408.696 424.456,408.696 
	424.456,425.555 415.913,425.555 415.913,428.967 437.066,428.967 "/>
<path d="M347.757,418.181c-0.063-2.071,0.279-4.134,1.007-6.073c0.904-2.178,2.969-3.651,5.322-3.801
	c3.64,0,5.188,2.195,5.188,5.702v14.986h4.058v-15.576c0-5.464-3.031-8.686-8.4-8.686c-3.026-0.033-5.841,1.55-7.384,4.153
	l-0.323-3.555h-3.507v23.635h4.02L347.757,418.181z"/>
<path d="M390.312,408.744h7.374v13.304c0,3.802,2.291,7.47,7.603,7.47c2.291,0.036,4.55-0.545,6.538-1.683v-3.497
	c-1.844,0.982-3.889,1.525-5.977,1.588c-2.756,0-4.201-1.73-4.201-4.248v-12.934h9.902v-3.412h-9.893v-7.374l-3.973,1.264v6.11
	h-7.374V408.744z"/>
<path d="M382.976,424.813c-1.339,0.967-2.97,1.443-4.619,1.35c-1.612,0.106-3.217-0.303-4.58-1.169
	c-1.225-0.818-1.986-2.169-2.053-3.64h-3.953c0.027,2.059,0.868,4.022,2.338,5.464c2.1,2.053,4.855,2.756,8.077,2.756
	s6.263-0.884,8.078-2.756c1.256-1.257,1.943-2.975,1.9-4.751c0-3.973-3.079-6.025-5.93-6.443l-6.396-0.95
	c-1.967-0.323-3.136-1.169-3.136-2.937c0.038-0.983,0.521-1.896,1.312-2.48c1.178-0.815,2.589-1.227,4.02-1.169
	c1.479-0.041,2.922,0.459,4.059,1.406c0.824,0.729,1.33,1.753,1.406,2.852h3.963c-0.04-1.628-0.614-3.198-1.635-4.467
	c-1.635-2.101-4.571-3.174-7.793-3.174c-2.658-0.063-5.237,0.907-7.193,2.708c-1.215,1.192-1.899,2.822-1.9,4.523
	c-0.035,1.48,0.464,2.925,1.406,4.067c1.155,1.205,2.688,1.979,4.343,2.195l6.025,0.884c2.518,0.371,3.497,1.729,3.497,3.27
	C384.212,423.322,383.754,424.235,382.976,424.813z"/>
<rect x="423.43" y="395.249" width="5.654" height="5.607"/>
<polygon points="320.815,425.507 320.815,428.967 339.679,428.967 339.679,425.507 332.353,425.507 332.353,399.27 339.679,399.27 
	339.679,395.857 320.815,395.857 320.815,399.27 328.143,399.27 328.143,425.507 "/>
<path d="M476.742,425.422l0.333,3.545h3.497v-23.635h-4.02v13.732c0,3.925-2.747,6.918-6.111,6.918
	c-3.734,0-5.236-2.109-5.236-5.702v-14.948h-4.01v15.557c0,5.274,3.364,8.686,8.306,8.686
	C472.171,429.574,475.526,428.13,476.742,425.422z"/>
<path d="M384.286,390.555c4.942,0,9.01-2.794,10.131-7.697h-3.802c-0.351,1.125-1.033,2.119-1.957,2.851
	c-1.208,1.019-2.768,1.523-4.343,1.407c-1.686,0.024-3.313-0.614-4.533-1.777c-1.587-1.575-2.46-3.732-2.414-5.968h17.657v-1.369
	c0.124-3.468-1.099-6.85-3.412-9.437c-1.947-1.886-4.569-2.913-7.279-2.851c-2.817-0.052-5.535,1.046-7.526,3.041
	c-2.354,2.594-3.608,6.002-3.497,9.503c-0.132,3.428,1.13,6.763,3.497,9.247C378.801,389.467,381.489,390.563,384.286,390.555z
	 M384.286,369.125c1.709-0.031,3.351,0.659,4.524,1.901c1.28,1.389,1.999,3.205,2.015,5.094h-13.305
	C377.605,373.326,379.754,369.125,384.286,369.125z"/>
<polygon points="445.344,386.544 436.753,386.544 436.753,366.322 425.121,366.322 425.121,369.686 432.733,369.686 
	432.733,386.544 424.19,386.544 424.19,389.956 445.344,389.956 "/>
<path d="M409.004,390.555c2.671,0,5.893-1.302,7.241-3.687l0.285,3.088h3.507v-33.717h-3.972v12.838
	c-1.643-2.176-4.231-3.428-6.957-3.364c-2.497-0.006-4.901,0.947-6.719,2.661c-2.385,2.29-3.648,5.702-3.648,9.807
	s1.169,7.336,3.411,9.617C403.972,389.604,406.442,390.598,409.004,390.555z M405.317,370.988c1.131-1.184,2.705-1.842,4.343-1.815
	c1.465-0.021,2.884,0.511,3.972,1.492c1.958,1.73,2.661,4.533,2.661,7.47s-0.703,5.702-2.661,7.479
	c-1.088,0.98-2.507,1.514-3.972,1.492c-1.634,0.071-3.223-0.538-4.391-1.682c-1.768-1.777-2.471-4.533-2.471-7.289
	C402.66,375.513,403.566,372.943,405.317,370.988z"/>
<polygon points="366.734,366.369 364.254,385.138 359.816,372.489 356.081,372.489 351.691,385.186 349.268,366.369 
	345.485,366.369 348.707,389.956 353.421,389.956 357.953,376.642 362.43,389.956 367.2,389.956 370.469,366.369 "/>
<rect x="431.707" y="356.239" width="5.654" height="5.606"/>
<path d="M333.606,371.463c-1.815-0.285-3.497-0.608-5.369-0.846c-2.471-0.323-4.856-1.682-4.856-4.666
	c-0.053-1.303,0.4-2.577,1.265-3.554c1.453-1.595,3.546-2.453,5.701-2.338c2.152-0.097,4.237,0.758,5.702,2.338
	c0.972,1.139,1.53,2.572,1.587,4.067h4.476c-0.032-2.709-1.164-5.288-3.136-7.146c-2.33-2.081-5.373-3.184-8.495-3.079
	c-3.173-0.093-6.251,1.083-8.554,3.269c-1.809,1.694-2.84,4.059-2.851,6.538c0,5.274,3.802,8.03,8.733,8.771l5.084,0.798
	c3.925,0.608,5.465,2.756,5.465,5.322c0.06,1.479-0.556,2.906-1.673,3.877c-1.502,1.397-3.554,1.9-6.072,1.9
	c-2.338,0-4.752-0.551-6.215-2.005c-1.421-1.374-2.244-3.251-2.291-5.227h-4.343c-0.001,3.01,1.244,5.886,3.44,7.945
	c2.242,2.053,5.369,3.126,9.389,3.126c3.545,0,7.052-1.026,9.342-3.269c1.775-1.67,2.771-4.006,2.746-6.443
	C342.711,375.616,339.118,372.252,333.606,371.463z"/>
<path d="M476.495,379.075c-0.079-2.067,0.244-4.129,0.95-6.073c0.907-2.154,2.977-3.591,5.313-3.687c3.734,0,5.369,2.1,5.369,5.645
	v14.996h4.011v-15.557c0-5.464-3.032-8.686-8.401-8.686c-2.66,0-5.797,1.311-7.193,3.734v-13.304h-4.021v33.812h4.021
	L476.495,379.075z"/>
<path d="M462.345,385.794c-1.342,0.968-2.975,1.448-4.628,1.359c-1.607,0.118-3.212-0.278-4.58-1.131
	c-1.22-0.822-1.98-2.171-2.053-3.64h-3.973c0.051,2.049,0.908,3.996,2.386,5.417c2.1,2.062,4.855,2.756,8.077,2.756
	s6.263-0.884,8.088-2.756c1.254-1.259,1.94-2.975,1.9-4.751c0-3.972-3.079-6.025-5.93-6.443l-6.396-0.95
	c-1.967-0.333-3.126-1.169-3.126-2.946c0.01-0.957,0.445-1.859,1.188-2.461c1.176-0.82,2.588-1.231,4.021-1.169
	c1.477-0.04,2.918,0.457,4.058,1.397c0.825,0.729,1.33,1.753,1.406,2.851h3.963c-0.041-1.605-0.604-3.154-1.606-4.41
	c-1.634-2.1-4.57-3.174-7.792-3.174c-2.658-0.063-5.237,0.908-7.194,2.708c-1.216,1.195-1.9,2.828-1.9,4.533
	c-0.034,1.478,0.465,2.918,1.406,4.058c1.152,1.208,2.687,1.984,4.343,2.195l6.025,0.894c2.519,0.371,3.497,1.72,3.497,3.269
	C463.518,384.335,463.084,385.218,462.345,385.794z"/>
<path d="M483.898,443.411c-3.07-0.121-5.952,1.481-7.47,4.152l-0.323-3.573h-3.507v23.635h4.021v-10.491
	c-0.038-2.083,0.311-4.154,1.026-6.11c0.868-2.281,2.981-3.851,5.416-4.021c1.411-0.059,2.775,0.504,3.735,1.54
	c0.837,0.955,1.287,2.188,1.264,3.459h4.058c0.039-1.826-0.481-3.62-1.492-5.142C489.102,444.658,486.576,443.363,483.898,443.411z"
	/>
<path d="M533.961,454.34l-6.396-0.95c-1.957-0.323-3.126-1.169-3.126-2.937c0.034-0.982,0.514-1.895,1.302-2.48
	c1.18-0.813,2.589-1.223,4.02-1.169c1.479-0.041,2.922,0.459,4.059,1.406c0.824,0.729,1.33,1.753,1.406,2.851h3.972
	c-0.039-1.633-0.613-3.209-1.634-4.485c-1.635-2.1-4.581-3.174-7.803-3.174c-2.658-0.063-5.237,0.908-7.193,2.709
	c-1.214,1.191-1.899,2.821-1.9,4.523c-0.038,1.479,0.458,2.923,1.396,4.067c1.156,1.203,2.688,1.977,4.343,2.194l6.025,0.884
	c2.519,0.371,3.507,1.73,3.507,3.27c0.008,0.948-0.424,1.847-1.169,2.433c-1.343,0.966-2.977,1.442-4.628,1.35
	c-1.609,0.109-3.212-0.3-4.571-1.169c-1.227-0.816-1.992-2.168-2.063-3.64h-3.972c0.023,2.058,0.861,4.021,2.328,5.464
	c2.109,2.053,4.865,2.756,8.087,2.756s6.253-0.884,8.078-2.756c1.256-1.257,1.943-2.974,1.9-4.751
	C539.891,456.811,536.812,454.758,533.961,454.34z"/>
<path d="M511.4,446.766c-1.649-2.171-4.24-3.419-6.966-3.354c-2.499-0.011-4.905,0.942-6.719,2.661
	c-2.386,2.28-3.649,5.701-3.649,9.807c0,3.915,1.169,7.327,3.412,9.617c1.824,1.802,4.297,2.795,6.86,2.756
	c2.671,0,5.893-1.312,7.242-3.688l0.285,3.079h3.497v-33.717H511.4V446.766z M508.968,463.301c-1.089,0.98-2.508,1.514-3.973,1.492
	c-1.633,0.07-3.223-0.538-4.391-1.682c-1.768-1.768-2.471-4.523-2.471-7.279c-0.134-2.621,0.771-5.189,2.519-7.146
	c1.126-1.195,2.701-1.863,4.343-1.844c1.465-0.021,2.884,0.511,3.973,1.492c1.957,1.729,2.66,4.532,2.66,7.479
	S510.925,461.571,508.968,463.301z"/>
<path d="M465.291,462.997v-11.404c0.024-1.206-0.216-2.402-0.703-3.506c-1.121-2.566-3.802-4.666-8.4-4.666
	c-2.674-0.09-5.281,0.845-7.289,2.613c-1.35,1.262-2.14,3.01-2.195,4.855h3.925c0.045-1.048,0.499-2.037,1.264-2.756
	c1.179-1.041,2.728-1.563,4.296-1.444c1.446-0.086,2.869,0.398,3.962,1.35c0.897,0.897,1.344,2.149,1.217,3.411v1.73l-7.374,0.418
	c-6.025,0.323-8.458,4.2-8.458,7.707c0,3.364,2.527,6.956,8.173,6.956c3.316,0,6.405-1.492,7.802-3.877h0.095
	c-0.089,1.893,1.372,3.499,3.265,3.589c0.078,0.004,0.155,0.005,0.232,0.003c0.908,0.035,1.81-0.157,2.623-0.561v-2.937
	c-0.34,0.079-0.687,0.127-1.035,0.143C465.899,464.612,465.291,464.28,465.291,462.997z M461.366,457.618
	c0.022,1.983-0.731,3.896-2.101,5.331c-1.33,1.269-3.112,1.953-4.95,1.9c-3.364,0-4.752-1.824-4.752-3.925
	c0-2.983,2.708-4.2,5.227-4.343l6.538-0.37L461.366,457.618z"/>
<path d="M406.581,443.411c-3.024-0.034-5.836,1.55-7.375,4.152l-0.332-3.554h-3.497v23.634h4.01v-10.786
	c-0.054-2.072,0.299-4.135,1.036-6.072c0.904-2.178,2.969-3.651,5.321-3.801c3.641,0,5.18,2.195,5.18,5.701v14.987h4.067v-15.576
	C414.991,446.633,411.95,443.411,406.581,443.411z"/>
<path d="M436.943,446.766c-1.645-2.172-4.233-3.421-6.956-3.354c-2.502-0.012-4.911,0.941-6.729,2.661
	c-2.376,2.28-3.64,5.701-3.64,9.807c0,3.915,1.169,7.327,3.412,9.617c1.82,1.808,4.296,2.802,6.86,2.756
	c2.661,0,5.883-1.312,7.242-3.688l0.275,3.079h3.535v-33.717h-3.973L436.943,446.766z M434.52,463.301
	c-1.089,0.979-2.507,1.512-3.972,1.492c-1.633,0.07-3.223-0.538-4.391-1.682c-1.777-1.768-2.471-4.523-2.471-7.279
	c-0.138-2.622,0.768-5.191,2.519-7.146c2.246-2.296,5.893-2.442,8.314-0.333c1.958,1.729,2.661,4.533,2.661,7.479
	C437.181,458.777,436.478,461.571,434.52,463.301L434.52,463.301z"/>
<path d="M333.606,449.15c-1.815-0.275-3.497-0.607-5.369-0.836c-2.471-0.332-4.856-1.682-4.856-4.676
	c-0.051-1.3,0.401-2.57,1.265-3.544c1.453-1.596,3.546-2.453,5.701-2.338c2.153-0.103,4.24,0.754,5.702,2.338
	c0.97,1.136,1.528,2.565,1.587,4.058h4.476c-0.034-2.708-1.166-5.287-3.136-7.146c-2.33-2.081-5.373-3.184-8.495-3.079
	c-3.172-0.089-6.249,1.088-8.554,3.27c-1.806,1.696-2.837,4.06-2.851,6.538c0,5.274,3.802,8.03,8.733,8.78l5.084,0.789
	c3.925,0.608,5.465,2.756,5.465,5.331c0.059,1.477-0.557,2.899-1.673,3.868c-1.502,1.406-3.554,1.9-6.072,1.9
	c-2.338,0-4.752-0.561-6.215-2.005c-1.421-1.378-2.243-3.258-2.291-5.236h-4.343c0.007,3.012,1.259,5.888,3.459,7.944
	c2.243,2.053,5.369,3.127,9.39,3.127c3.545,0,7.051-1.026,9.342-3.27c1.774-1.67,2.771-4.006,2.746-6.443
	C342.711,453.304,339.118,449.949,333.606,449.15z"/>
<path d="M355.549,460.317v-12.896h9.902v-3.431h-9.902v-7.374l-3.934,1.283v6.091h-7.413v3.412h7.413v13.305
	c0,3.801,2.29,7.469,7.603,7.469c2.29,0.037,4.549-0.544,6.538-1.682v-3.497c-1.844,0.981-3.89,1.525-5.978,1.587
	C356.994,464.564,355.549,462.835,355.549,460.317z"/>
<path d="M388.943,462.997v-11.404c0.024-1.206-0.216-2.402-0.703-3.506c-1.112-2.566-3.802-4.666-8.401-4.666
	c-2.674-0.09-5.28,0.845-7.289,2.613c-1.345,1.264-2.135,3.011-2.194,4.855h3.925c0.045-1.048,0.499-2.037,1.264-2.756
	c1.178-1.041,2.728-1.563,4.295-1.444c1.449-0.083,2.874,0.401,3.973,1.35c0.89,0.901,1.332,2.151,1.207,3.411v1.73l-7.375,0.418
	c-6.024,0.323-8.457,4.2-8.457,7.707c0,3.364,2.527,6.956,8.172,6.956c3.317,0,6.405-1.492,7.803-3.877h0.095
	c-0.09,1.893,1.372,3.499,3.265,3.589c0.08,0.004,0.161,0.005,0.242,0.003c0.904,0.034,1.803-0.159,2.613-0.561v-2.937
	c-0.337,0.078-0.681,0.126-1.026,0.143C389.552,464.612,388.943,464.28,388.943,462.997z M385.019,457.618
	c0.021,1.983-0.731,3.896-2.101,5.331c-1.33,1.27-3.113,1.954-4.951,1.9c-3.354,0-4.751-1.824-4.751-3.925
	c0-2.983,2.708-4.2,5.227-4.343l6.538-0.37L385.019,457.618z"/>
<path d="M557.547,398.376c-3.041,0-4.562,1.9-4.562,4.276v2.756h10.264v3.421h-10.264v20.242h-3.991v-20.242h-7.792v-3.326h7.792
	v-2.756c0-4.751,3.137-7.792,8.078-7.792c2.756,0,4.656,0.57,5.986,1.14v3.706C561.729,399.136,559.258,398.376,557.547,398.376z"/>
<path d="M583.301,426.79c-1.711,1.711-4.371,2.851-7.317,2.851s-5.702-1.14-7.413-2.851c-2.565-2.471-3.706-5.797-3.706-9.598
	c0-3.707,1.141-7.033,3.706-9.599c1.711-1.711,4.467-2.851,7.413-2.851c2.945,0,5.606,1.14,7.317,2.851
	c2.565,2.471,3.706,5.797,3.706,9.503C587.007,420.898,585.866,424.319,583.301,426.79z M580.26,409.97
	c-1.046-0.95-2.471-1.711-4.371-1.711c-1.901,0-3.326,0.761-4.372,1.711c-1.995,1.806-2.661,4.656-2.661,7.223
	c0,2.565,0.666,5.512,2.661,7.317c1.046,0.95,2.471,1.71,4.372,1.71c1.9,0,3.325-0.76,4.371-1.71
	c1.995-1.806,2.661-4.752,2.661-7.223C582.921,414.721,582.255,411.775,580.26,409.97z"/>
<path d="M607.153,413.391c0-1.33-0.38-2.471-1.235-3.421c-0.76-0.855-1.995-1.521-3.706-1.521c-2.376,0-4.467,1.806-5.417,3.991
	c-0.76,1.806-1.045,4.182-1.045,6.082v10.453h-3.991v-23.473h3.516l0.285,3.517c1.521-2.852,4.562-4.182,7.412-4.182
	c3.137,0,5.417,1.615,6.747,3.421c1.141,1.616,1.521,3.421,1.521,5.132H607.153z"/>
</svg>
